<svg width="22" height="22" viewBox="0 0 22 22" fill="none" xmlns="http://www.w3.org/2000/svg">
<path d="M9.3 19.9971C9.46738 20.3015 9.71345 20.5554 10.0125 20.7323C10.3115 20.9091 10.6526 21.0024 11 21.0024C11.3474 21.0024 11.6885 20.9091 11.9875 20.7323C12.2866 20.5554 12.5326 20.3015 12.7 19.9971M3 0.99707C1.8 2.69707 1 4.69707 1 6.99707M21 6.99707C21 4.69707 20.2 2.69707 19 0.99707M5 6.99707C5 5.40577 5.63214 3.87965 6.75736 2.75443C7.88258 1.62921 9.4087 0.99707 11 0.99707C12.5913 0.99707 14.1174 1.62921 15.2426 2.75443C16.3679 3.87965 17 5.40577 17 6.99707C17 13.9971 20 15.9971 20 15.9971H2C2 15.9971 5 13.9971 5 6.99707Z" stroke="#19059A" stroke-width="2" stroke-linecap="round" stroke-linejoin="round"/>
</svg>
