<svg width="20" height="20" viewBox="0 0 20 20" fill="none" xmlns="http://www.w3.org/2000/svg">
<path d="M15 10V14C15 14.2652 14.8946 14.5196 14.7071 14.7071C14.5196 14.8946 14.2652 15 14 15H10M15 1H17C17.5304 1 18.0391 1.21071 18.4142 1.58579C18.7893 1.96086 19 2.46957 19 3V5M15 6V5M19 15V17C19 17.5304 18.7893 18.0391 18.4142 18.4142C18.0391 18.7893 17.5304 19 17 19H15M1 5V3C1 2.46957 1.21071 1.96086 1.58579 1.58579C1.96086 1.21071 2.46957 1 3 1H5M5 15H5.01M5 19H3C2.46957 19 1.96086 18.7893 1.58579 18.4142C1.21071 18.0391 1 17.5304 1 17V15M6 5H9C9.55228 5 10 5.44772 10 6V9C10 9.55228 9.55228 10 9 10H6C5.44772 10 5 9.55228 5 9V6C5 5.44772 5.44772 5 6 5Z" stroke="#A3AED0" stroke-width="2" stroke-linecap="round" stroke-linejoin="round"/>
</svg>
