<svg width="21" height="20" viewBox="0 0 21 20" fill="none" xmlns="http://www.w3.org/2000/svg">
<path d="M6.4 5.9L9.1 8.6M11.9 8.6L14.6 5.9M6.4 14.1L9.1 11.4M11.9 11.4L14.6 14.1M3.5 1H17.5C18.6046 1 19.5 1.89543 19.5 3V17C19.5 18.1046 18.6046 19 17.5 19H3.5C2.39543 19 1.5 18.1046 1.5 17V3C1.5 1.89543 2.39543 1 3.5 1ZM6.5 5.5C6.5 5.77614 6.27614 6 6 6C5.72386 6 5.5 5.77614 5.5 5.5C5.5 5.22386 5.72386 5 6 5C6.27614 5 6.5 5.22386 6.5 5.5ZM15.5 5.5C15.5 5.77614 15.2761 6 15 6C14.7239 6 14.5 5.77614 14.5 5.5C14.5 5.22386 14.7239 5 15 5C15.2761 5 15.5 5.22386 15.5 5.5ZM6.5 14.5C6.5 14.7761 6.27614 15 6 15C5.72386 15 5.5 14.7761 5.5 14.5C5.5 14.2239 5.72386 14 6 14C6.27614 14 6.5 14.2239 6.5 14.5ZM15.5 14.5C15.5 14.7761 15.2761 15 15 15C14.7239 15 14.5 14.7761 14.5 14.5C14.5 14.2239 14.7239 14 15 14C15.2761 14 15.5 14.2239 15.5 14.5ZM12.5 10C12.5 11.1046 11.6046 12 10.5 12C9.39543 12 8.5 11.1046 8.5 10C8.5 8.89543 9.39543 8 10.5 8C11.6046 8 12.5 8.89543 12.5 10Z" stroke="#A3AED0" stroke-width="2" stroke-linecap="round" stroke-linejoin="round"/>
</svg>
