<svg width="25" height="24" viewBox="0 0 25 24" fill="none" xmlns="http://www.w3.org/2000/svg">
<path d="M8.4 7.9L11.1 10.6M13.9 10.6L16.6 7.9M8.4 16.1L11.1 13.4M13.9 13.4L16.6 16.1M5.5 3H19.5C20.6046 3 21.5 3.89543 21.5 5V19C21.5 20.1046 20.6046 21 19.5 21H5.5C4.39543 21 3.5 20.1046 3.5 19V5C3.5 3.89543 4.39543 3 5.5 3ZM8.5 7.5C8.5 7.77614 8.27614 8 8 8C7.72386 8 7.5 7.77614 7.5 7.5C7.5 7.22386 7.72386 7 8 7C8.27614 7 8.5 7.22386 8.5 7.5ZM17.5 7.5C17.5 7.77614 17.2761 8 17 8C16.7239 8 16.5 7.77614 16.5 7.5C16.5 7.22386 16.7239 7 17 7C17.2761 7 17.5 7.22386 17.5 7.5ZM8.5 16.5C8.5 16.7761 8.27614 17 8 17C7.72386 17 7.5 16.7761 7.5 16.5C7.5 16.2239 7.72386 16 8 16C8.27614 16 8.5 16.2239 8.5 16.5ZM17.5 16.5C17.5 16.7761 17.2761 17 17 17C16.7239 17 16.5 16.7761 16.5 16.5C16.5 16.2239 16.7239 16 17 16C17.2761 16 17.5 16.2239 17.5 16.5ZM14.5 12C14.5 13.1046 13.6046 14 12.5 14C11.3954 14 10.5 13.1046 10.5 12C10.5 10.8954 11.3954 10 12.5 10C13.6046 10 14.5 10.8954 14.5 12Z" stroke="#153152" stroke-width="2" stroke-linecap="round" stroke-linejoin="round"/>
</svg>
