<svg width="24" height="25" viewBox="0 0 24 25" fill="none" xmlns="http://www.w3.org/2000/svg">
<path d="M10.7335 5.576C13.0629 5.2984 15.4191 5.79082 17.4424 6.97805C19.4656 8.16528 21.0447 9.98208 21.9385 12.151C22.0218 12.3755 22.0218 12.6225 21.9385 12.847C21.571 13.738 21.0853 14.5755 20.4945 15.337M14.0845 14.658C13.5187 15.2045 12.7609 15.5069 11.9743 15.5C11.1877 15.4932 10.4353 15.1777 9.87905 14.6215C9.32282 14.0652 9.00732 13.3128 9.00048 12.5262C8.99365 11.7396 9.29603 10.9818 9.84251 10.416M17.4795 17.999C16.153 18.7848 14.673 19.276 13.1399 19.4394C11.6068 19.6028 10.0565 19.4345 8.59414 18.9459C7.13182 18.4573 5.7917 17.6599 4.66472 16.6077C3.53773 15.5556 2.65026 14.2734 2.06251 12.848C1.97916 12.6235 1.97916 12.3765 2.06251 12.152C2.94914 10.0019 4.50918 8.19725 6.50851 7.009M2.00051 2.5L22.0005 22.5" stroke="white" stroke-width="2" stroke-linecap="round" stroke-linejoin="round"/>
</svg>
