<?xml version="1.0" encoding="UTF-8"?>
<svg xmlns="http://www.w3.org/2000/svg" xmlns:xlink="http://www.w3.org/1999/xlink" viewBox="0 0 500 500">
  <defs>
    <style>
      .cls-1 {
        fill: url(#linear-gradient-2);
      }

      .cls-2 {
        fill: #ffdbbd;
      }

      .cls-3 {
        fill: #fff;
      }

      .cls-4 {
        opacity: .6;
      }

      .cls-5 {
        stroke: #6eedce;
        stroke-linecap: round;
        stroke-linejoin: round;
        stroke-width: 2px;
      }

      .cls-5, .cls-6 {
        fill: none;
      }

      .cls-7 {
        fill: #ea9d5e;
      }

      .cls-8 {
        fill: #333;
      }

      .cls-9 {
        fill: #f9be85;
      }

      .cls-10 {
        clip-path: url(#clippath);
      }

      .cls-11 {
        fill: #191919;
      }

      .cls-12 {
        fill: url(#linear-gradient);
      }
    </style>
    <linearGradient id="linear-gradient" x1="250" y1="500" x2="250" y2="0" gradientUnits="userSpaceOnUse">
      <stop offset="0" stop-color="#22277b"/>
      <stop offset="1" stop-color="#a164db"/>
    </linearGradient>
    <linearGradient id="linear-gradient-2" x1="300.87" y1="460.62" x2="302.75" y2="101.9" xlink:href="#linear-gradient"/>
    <clipPath id="clippath">
      <rect class="cls-6" x="236.92" y="155.98" width="104.17" height="192.36"/>
    </clipPath>
  </defs>
  <g id="BACKGROUND">
    <rect class="cls-12" width="500" height="500"/>
  </g>
  <g id="OBJECTS">
    <g>
      <path class="cls-3" d="m122.29,129.91h-52.92v52.92h52.92v-52.92Zm-7.25,45.67h-38.42v-38.42h38.42v38.42Z"/>
      <rect class="cls-3" x="85.09" y="145.63" width="21.48" height="21.48"/>
      <path class="cls-3" d="m69.36,319.73h52.92v-52.92h-52.92v52.92Zm7.25-45.67h38.42v38.42h-38.42v-38.42Z"/>
      <rect class="cls-3" x="85.09" y="282.53" width="21.48" height="21.48"/>
      <path class="cls-3" d="m207.96,129.91v52.92h52.92v-52.92h-52.92Zm45.67,45.67h-38.42v-38.42h38.42v38.42Z"/>
      <rect class="cls-3" x="223.69" y="145.63" width="21.48" height="21.48"/>
      <polygon class="cls-3" points="137.68 136.23 153.4 136.23 153.4 144.24 160.12 144.24 160.12 136.23 160.12 134.8 160.12 129.91 130.95 129.91 130.95 134.8 130.95 136.23 130.95 144.24 137.68 144.24 137.68 136.23"/>
      <rect class="cls-3" x="176.71" y="129.91" width="6.32" height="6.32"/>
      <rect class="cls-3" x="139.22" y="145.63" width="6.32" height="6.32"/>
      <rect class="cls-3" x="184.4" y="144.24" width="6.32" height="6.32"/>
      <polygon class="cls-3" points="183.04 151.95 153.4 151.95 153.4 167.11 161.5 167.11 161.5 181.87 168.22 181.87 168.22 167.11 183.04 167.11 183.04 151.95"/>
      <polygon class="cls-3" points="137.68 197.21 145.54 197.21 145.54 181.87 137.68 181.87 137.68 175.58 146.13 175.58 146.13 181.09 153.4 181.09 153.4 175.58 153.4 173.81 153.4 168.5 137.68 168.5 137.68 159.53 130.95 159.53 130.95 197.21 135.73 197.21 137.68 197.21"/>
      <polygon class="cls-3" points="176.71 175.58 176.71 196.03 182.15 196.03 184.4 196.03 184.4 212.16 199.26 212.16 199.26 196.03 207.13 196.03 207.13 204.49 214.02 204.49 214.02 196.03 229.36 196.03 229.36 189.54 199.26 189.54 199.26 168.5 191.79 168.5 191.79 189.54 184.4 189.54 184.4 175.58 176.71 175.58"/>
      <polygon class="cls-3" points="85.09 232.13 85.09 228.88 85.09 220.26 92.2 220.26 92.2 228.88 100.33 228.88 100.33 220.26 109.38 220.26 109.38 242.45 113.02 242.45 116.65 242.45 122.93 242.45 122.93 236.36 116.65 236.36 116.65 227.5 146.13 227.5 146.13 250.32 153.4 250.32 153.4 242.45 161.22 242.45 161.22 235.37 153.4 235.37 153.4 227.5 153.4 226.13 153.4 220.26 168.22 220.26 168.22 212.95 146.13 212.95 146.13 220.26 116.65 220.26 116.65 212.16 122.93 212.16 122.93 204.49 111.54 204.49 111.54 205.67 109.38 205.67 109.38 212.16 100.33 212.16 100.33 205.67 92.2 205.67 92.2 212.16 85.09 212.16 85.09 205.67 91.87 205.67 91.87 189.54 69.36 189.54 69.36 205.67 77.23 205.67 77.23 212.16 69.36 212.16 69.36 220.26 77.23 220.26 77.23 228.88 69.36 228.88 69.36 235.37 85.09 235.37 85.09 232.13"/>
      <polygon class="cls-3" points="100.33 258.19 130.95 258.19 130.95 265.86 153.4 265.86 153.4 258.19 145.54 258.19 145.54 250.32 106.56 250.32 106.56 243.83 69.36 243.83 69.36 250.32 100.33 250.32 100.33 258.19"/>
      <rect class="cls-3" x="107.61" y="189.54" width="8.06" height="8.06"/>
      <rect class="cls-3" x="130.95" y="205.67" width="22.45" height="6.49"/>
      <rect class="cls-3" x="154.22" y="189.54" width="14" height="8.06"/>
      <rect class="cls-3" x="130.95" y="274.05" width="14.58" height="7.54"/>
      <rect class="cls-3" x="145.54" y="282.53" width="9.86" height="7.53"/>
      <polygon class="cls-3" points="138.25 296.54 130.95 296.54 130.95 319.73 135.73 319.73 138.25 319.73 145.54 319.73 145.54 312.48 138.25 312.48 138.25 296.54"/>
      <rect class="cls-3" x="146.13" y="296.54" width="15.09" height="7.46"/>
      <rect class="cls-3" x="161.22" y="304" width="7.95" height="15.72"/>
      <polygon class="cls-3" points="162.29 274.05 155.4 274.05 155.4 282.53 162.29 282.53 162.29 290.05 169.17 290.05 169.17 250.32 162.29 250.32 162.29 274.05"/>
      <rect class="cls-3" x="168.22" y="228.88" width="8.49" height="6.49"/>
      <path class="cls-3" d="m221.88,288.08v7.28h31.27v-13.77h-8.46v6.49h-15.34v-37.76h-7.47v-21.44h-6.67v-14.75h-8.08v13.37h-15.34v-7.24h-7.39v22.19h7.39v-7.08h15.34v8.46h6.88v6.49h-22.18v23.73h-6.53v29.95h6.53v-15.92h30.05Zm0-29.9v23.41h-21.44v-23.41h21.44Z"/>
      <rect class="cls-3" x="205.75" y="265.86" width="9.46" height="9.46"/>
      <rect class="cls-3" x="176.71" y="258.19" width="7.69" height="13.18"/>
      <rect class="cls-3" x="176.71" y="304.8" width="7.69" height="14.16"/>
      <rect class="cls-3" x="207.13" y="304" width="22.23" height="7.86"/>
      <rect class="cls-3" x="244.7" y="296.54" width="16.19" height="6.49"/>
      <rect class="cls-3" x="229.36" y="311.86" width="31.53" height="7.86"/>
      <rect class="cls-3" x="253.16" y="258.97" width="7.73" height="15.13"/>
      <rect class="cls-3" x="229.36" y="235.37" width="15.34" height="7.08"/>
      <polygon class="cls-3" points="230.73 199.38 230.73 220.26 237.52 220.26 237.52 212.16 244.7 212.16 244.7 204.49 237.52 204.49 237.52 199.38 230.73 199.38"/>
      <polygon class="cls-3" points="245.16 190.33 245.16 198.8 253.64 198.8 253.64 227.5 245.16 227.5 245.16 235.37 253.64 235.37 253.64 242.45 260.89 242.45 260.89 190.33 253.64 190.33 245.16 190.33"/>
      <rect class="cls-3" x="245.16" y="251.11" width="7.99" height="7.87"/>
    </g>
    <g>
      <g>
        <path class="cls-9" d="m500,349.12s-31.41-12.43-39.7-21.82c-8.43-9.55-10.7-23.01-11.22-35.74-.51-12.73.35-25.73-3.19-37.97-1.7-5.87-4.37-11.4-7.02-16.89-3.64-7.53-7.28-15.06-10.92-22.59-11.3-23.38-22.6-46.75-33.9-70.13-1.28-2.64-2.75-5.48-5.42-6.7-3.29-1.5-7.35.14-9.66,2.93s-3.22,6.45-3.85,10.02c-3.07,17.12-1.31,35.09,5.03,51.28,3.18,8.13,7.53,15.94,8.92,24.57.21,1.3.29,2.81-.63,3.75-1.22,1.25-3.31.7-4.94.06-4.89-1.91-9.78-3.83-14.67-5.74-4.11,10.59-9.39,21-13.5,31.59-14.05,36.19-28.32,73.6-27.11,112.4.05,1.56.13,3.14.69,4.6.67,1.74,1.98,3.14,3.29,4.46,12.53,12.59,28.76,21.45,46.12,25.18,7.69,1.66,15.57,2.33,23.22,4.18,22.18,5.37,40.68,20.15,58.58,34.3,24.94,19.72,39.88,33.28,39.88,33.28v-125.02Z"/>
        <path class="cls-7" d="m379.05,196.36c1.02,0,1.86-.34,2.69-.79.83-.42,1.64-.97,2.62-1.39,1.96-.85,4.06-1.05,5.98-1.18,1.92-.13,3.8-.26,5.72-.44,1.92-.16,3.84-.38,5.84-.49-1.71,1.06-3.59,1.78-5.51,2.33-1.92.53-3.92.85-5.89.97-1.95.13-3.8.17-5.55.58-.87.2-1.83.52-2.84.72-1,.18-2.17.22-3.06-.31Z"/>
        <path class="cls-7" d="m380.83,200.71c4.8,1.02,9.38.22,13.78-1.24,2.21-.74,4.39-1.64,6.61-2.55,2.22-.9,4.49-1.82,6.88-2.41-1.96,1.48-3.96,2.83-6.06,4.07-2.1,1.23-4.31,2.35-6.68,3.14-2.37.79-4.9,1.23-7.43,1.15-2.51-.08-5.07-.73-7.1-2.16Z"/>
        <path class="cls-7" d="m389.03,224.82c.88,2.4,1.27,4.97,1.32,7.54.05,2.58-.25,5.17-.89,7.67-.63,2.51-1.61,4.93-2.88,7.17-1.27,2.24-2.84,4.31-4.76,6,1.13-2.29,2.19-4.52,3.09-6.8.9-2.28,1.64-4.6,2.25-6.95.6-2.35,1.05-4.75,1.35-7.18.3-2.44.43-4.9.52-7.45Z"/>
        <path class="cls-7" d="m367.98,331.44c2.36,2.18,4.77,4.2,7.32,6,2.55,1.79,5.21,3.4,8,4.74,2.77,1.38,5.67,2.49,8.65,3.41,2.99.9,6.05,1.57,9.23,2.1-3.19.46-6.47.3-9.66-.3-3.2-.59-6.31-1.66-9.26-3.08-2.92-1.46-5.68-3.25-8.11-5.42-2.43-2.15-4.57-4.65-6.17-7.44Z"/>
        <path class="cls-7" d="m379.73,402.84c3.33-.72,6.45-1.85,9.4-3.32,2.93-1.49,5.71-3.26,8.31-5.29,2.63-2,5.08-4.23,7.54-6.51,2.45-2.29,4.86-4.65,7.45-6.87-1.85,2.86-3.88,5.58-6.12,8.15-2.23,2.58-4.7,4.98-7.43,7.1-2.75,2.09-5.76,3.89-9.02,5.1-3.24,1.23-6.72,1.9-10.13,1.63Z"/>
        <path class="cls-7" d="m451.74,311.9c1.32,3.69,1.36,7.79.82,11.67-.52,3.91-1.63,7.67-2.72,11.37-1.14,3.69-2.38,7.41-4.1,10.95-1.7,3.53-3.89,6.9-6.77,9.53,2.12-3.26,3.73-6.71,5.07-10.26,1.33-3.56,2.43-7.21,3.53-10.9,1.14-3.69,2.31-7.32,3.18-11.01.85-3.69,1.34-7.45.99-11.34Z"/>
        <path class="cls-7" d="m455.64,340.98c-.69,5.43-2.27,10.76-4.49,15.81-2.21,5.06-5.13,9.81-8.58,14.15-3.49,4.32-7.47,8.1-11.35,11.88-3.88,3.79-7.66,7.64-10.8,12.12,2.29-4.99,5.81-9.35,9.46-13.4,3.65-4.08,7.52-7.89,10.84-12.08,3.37-4.16,6.27-8.7,8.77-13.46,2.48-4.78,4.5-9.8,6.16-15.01Z"/>
        <path class="cls-9" d="m217.39,159.15c-3.89.54-7.79,2.45-9.77,5.84-2.42,4.15-1.42,9.63,1.25,13.63,2.67,4,6.73,6.83,10.73,9.49,5.68,3.77,11.66,7.46,18.38,8.56,6.72,1.1,14.42-1.01,18.07-6.76,1.69-2.67,2.39-5.88,2.42-9.04.08-7.97-3.42-16.05-11.33-18.29-8.38-2.37-21.23-4.62-29.74-3.44Z"/>
      </g>
      <g>
        <path class="cls-8" d="m245.51,92.01h113.02c9.02,0,16.34,7.32,16.34,16.34v263.41c0,9.02-7.32,16.34-16.34,16.34h-113.02c-9.02,0-16.34-7.32-16.34-16.34V108.35c0-9.02,7.32-16.34,16.34-16.34Z"/>
        <path class="cls-1" d="m357.36,99.5h-34.33c-5.6,0-10.83,2.88-13.78,7.64-1.29,2.09-3.5,3.78-7.23,3.78s-5.94-1.69-7.23-3.78c-2.95-4.76-8.17-7.64-13.78-7.64h-34.33c-5.39,0-9.77,4.37-9.77,9.77v261.57c0,5.39,4.37,9.77,9.77,9.77h110.67c5.39,0,9.77-4.37,9.77-9.77V109.26c0-5.39-4.37-9.77-9.77-9.77Z"/>
        <path class="cls-11" d="m304.31,105.05c0,1.27-1.03,2.29-2.29,2.29s-2.29-1.03-2.29-2.29,1.03-2.29,2.29-2.29,2.29,1.03,2.29,2.29Z"/>
      </g>
      <g>
        <path class="cls-9" d="m234,231.03c-1.15-3.25-2.63-6.23-4.05-9.37v-9.41c0-.99-4.74.5-5.17.72-5.62,2.97-10.67,8.42-13.95,13.83-3.18,5.26-5.12,11.85-4.61,18.03.15,1.85.68,3.72,1.81,5.2,2.14,2.81,6.24,4.12,9.68,4.09,6.69-.06,12.4-5.74,15.47-11.25,2.16-3.87,2.26-7.73.81-11.84Z"/>
        <path class="cls-9" d="m237.08,281.41c-1.66-4.4-4.55-8.2-7.17-12.11l.09-8.36c-4.09.53-8.1,1.68-11.86,3.4-3.79,1.73-7.46,4.2-9.45,7.87-1.74,3.21-2.01,7.03-1.63,10.66.58,5.54,2.63,10.91,5.87,15.44,1.19,1.66,2.67,3.29,4.65,3.8,1.11.29,2.27.19,3.41.07,5.86-.61,12.3-2.21,15.47-7.18,2.53-3.96,2.27-9.19.61-13.58Z"/>
        <path class="cls-9" d="m211.47,329.92c.88,4.49,3.19,9.39,7.31,11.7,3.4,1.9,8.05,2.06,11.64.53,1.37-.59,2.57-1.55,3.57-2.66,3.17-3.51,4.4-8.57,3.62-13.24-.72-4.31-4.03-12.17-8.71-13.7-5.82-1.89-13.1,2.34-15.9,7.32-1.84,3.27-2.18,6.71-1.52,10.05Z"/>
        <path class="cls-2" d="m214.75,225.01c2.28-.3,4.79.97,5.58,3.13-3.96.28-7.11,3.35-9.71,6.35-2.57,2.97-5.1,6.44-5,10.37-.02-3.07.22-6.14.74-9.16.73-4.26,3.49-10.05,8.4-10.69Z"/>
        <path class="cls-2" d="m223.31,276.61c-3.16-1.38-7.11-.29-9.44,2.25-2.33,2.55-3.11,6.3-2.43,9.68.69,3.38,2.72,6.4,5.3,8.69-.11-4.45,1.84-8.69,4.69-12.03,1.07-1.25,4.12-2.96,4.63-4.41.58-1.66-1.37-3.58-2.76-4.18Z"/>
        <path class="cls-2" d="m218.98,317.31c-2.84,4.15-2.66,9.65-1.7,14.59.22,1.14.53,2.36,1.4,3.12-4.08-3.07-5.85-8.87-4.2-13.7,1.08-3.15,3.98-6.16,7.5-6.13-1.25.31-2.25,1.02-3,2.12Z"/>
      </g>
      <g class="cls-4">
        <g class="cls-10">
          <g>
            <path class="cls-3" d="m208.55,169.62h-46.23v46.23h46.23v-46.23Zm-6.33,39.9h-33.57v-33.57h33.57v33.57Z"/>
            <rect class="cls-3" x="176.05" y="183.35" width="18.76" height="18.76"/>
            <path class="cls-3" d="m162.31,335.44h46.23v-46.23h-46.23v46.23Zm6.33-39.9h33.57v33.57h-33.57v-33.57Z"/>
            <rect class="cls-3" x="176.05" y="302.94" width="18.76" height="18.76"/>
            <path class="cls-3" d="m283.4,169.62v46.23h46.23v-46.23h-46.23Zm39.9,39.9h-33.57v-33.57h33.57v33.57Z"/>
            <rect class="cls-3" x="297.13" y="183.35" width="18.76" height="18.76"/>
            <polygon class="cls-3" points="221.99 175.14 235.73 175.14 235.73 182.14 241.6 182.14 241.6 175.14 241.6 173.89 241.6 169.62 216.12 169.62 216.12 173.89 216.12 175.14 216.12 182.14 221.99 182.14 221.99 175.14"/>
            <rect class="cls-3" x="256.09" y="169.62" width="5.52" height="5.52"/>
            <rect class="cls-3" x="223.34" y="183.35" width="5.52" height="5.52"/>
            <rect class="cls-3" x="262.81" y="182.14" width="5.52" height="5.52"/>
            <polygon class="cls-3" points="261.62 188.88 235.73 188.88 235.73 202.11 242.8 202.11 242.8 215.01 248.67 215.01 248.67 202.11 261.62 202.11 261.62 188.88"/>
            <polygon class="cls-3" points="221.99 228.42 228.86 228.42 228.86 215.01 221.99 215.01 221.99 209.52 229.37 209.52 229.37 214.33 235.73 214.33 235.73 209.52 235.73 207.97 235.73 203.33 221.99 203.33 221.99 195.5 216.12 195.5 216.12 228.42 220.29 228.42 221.99 228.42"/>
            <polygon class="cls-3" points="256.09 209.52 256.09 227.39 260.85 227.39 262.81 227.39 262.81 241.48 275.79 241.48 275.79 227.39 282.67 227.39 282.67 234.77 288.68 234.77 288.68 227.39 302.08 227.39 302.08 221.72 275.79 221.72 275.79 203.33 269.27 203.33 269.27 221.72 262.81 221.72 262.81 209.52 256.09 209.52"/>
            <polygon class="cls-3" points="176.05 258.92 176.05 256.08 176.05 248.55 182.26 248.55 182.26 256.08 189.37 256.08 189.37 248.55 197.27 248.55 197.27 267.94 200.45 267.94 203.63 267.94 209.11 267.94 209.11 262.61 203.63 262.61 203.63 254.88 229.37 254.88 229.37 274.81 235.73 274.81 235.73 267.94 242.56 267.94 242.56 261.75 235.73 261.75 235.73 254.88 235.73 253.68 235.73 248.55 248.67 248.55 248.67 242.16 229.37 242.16 229.37 248.55 203.63 248.55 203.63 241.48 209.11 241.48 209.11 234.77 199.16 234.77 199.16 235.81 197.27 235.81 197.27 241.48 189.37 241.48 189.37 235.81 182.26 235.81 182.26 241.48 176.05 241.48 176.05 235.81 181.98 235.81 181.98 221.72 162.31 221.72 162.31 235.81 169.18 235.81 169.18 241.48 162.31 241.48 162.31 248.55 169.18 248.55 169.18 256.08 162.31 256.08 162.31 261.75 176.05 261.75 176.05 258.92"/>
            <polygon class="cls-3" points="189.37 281.68 216.12 281.68 216.12 288.38 235.73 288.38 235.73 281.68 228.86 281.68 228.86 274.81 194.81 274.81 194.81 269.14 162.31 269.14 162.31 274.81 189.37 274.81 189.37 281.68"/>
            <rect class="cls-3" x="195.72" y="221.72" width="7.04" height="7.05"/>
            <rect class="cls-3" x="216.12" y="235.81" width="19.61" height="5.67"/>
            <rect class="cls-3" x="236.45" y="221.72" width="12.23" height="7.05"/>
            <rect class="cls-3" x="216.12" y="295.54" width="12.74" height="6.59"/>
            <rect class="cls-3" x="228.86" y="302.94" width="8.62" height="6.57"/>
            <polygon class="cls-3" points="222.49 315.19 216.12 315.19 216.12 335.44 220.29 335.44 222.49 335.44 228.86 335.44 228.86 329.11 222.49 329.11 222.49 315.19"/>
            <rect class="cls-3" x="229.37" y="315.19" width="13.19" height="6.52"/>
            <rect class="cls-3" x="242.56" y="321.71" width="6.95" height="13.73"/>
            <polygon class="cls-3" points="243.49 295.54 237.48 295.54 237.48 302.94 243.49 302.94 243.49 309.52 249.51 309.52 249.51 274.81 243.49 274.81 243.49 295.54"/>
            <rect class="cls-3" x="248.67" y="256.08" width="7.42" height="5.67"/>
            <path class="cls-3" d="m295.55,307.8v6.36h27.32v-12.03h-7.39v5.67h-13.4v-32.99h-6.53v-18.73h-5.83v-12.89h-7.06v11.68h-13.4v-6.33h-6.46v19.39h6.46v-6.19h13.4v7.39h6.01v5.67h-19.38v20.73h-5.71v26.17h5.71v-13.91h26.25Zm0-26.12v20.45h-18.73v-20.45h18.73Z"/>
            <rect class="cls-3" x="281.46" y="288.38" width="8.26" height="8.26"/>
            <rect class="cls-3" x="256.09" y="281.68" width="6.72" height="11.51"/>
            <rect class="cls-3" x="256.09" y="322.41" width="6.72" height="12.37"/>
            <rect class="cls-3" x="282.67" y="321.71" width="19.42" height="6.87"/>
            <rect class="cls-3" x="315.49" y="315.19" width="14.14" height="5.67"/>
            <rect class="cls-3" x="302.08" y="328.58" width="27.54" height="6.87"/>
            <rect class="cls-3" x="322.88" y="282.37" width="6.75" height="13.22"/>
            <rect class="cls-3" x="302.08" y="261.75" width="13.4" height="6.19"/>
            <polygon class="cls-3" points="303.29 230.31 303.29 248.55 309.22 248.55 309.22 241.48 315.49 241.48 315.49 234.77 309.22 234.77 309.22 230.31 303.29 230.31"/>
            <polygon class="cls-3" points="315.89 222.4 315.89 229.81 323.3 229.81 323.3 254.88 315.89 254.88 315.89 261.75 323.3 261.75 323.3 267.94 329.63 267.94 329.63 222.4 323.3 222.4 315.89 222.4"/>
            <rect class="cls-3" x="315.89" y="275.5" width="6.98" height="6.87"/>
          </g>
        </g>
      </g>
      <polyline class="cls-5" points="314.8 158.83 341.09 158.83 341.09 184.73"/>
      <polyline class="cls-5" points="340.9 321.3 340.9 347.58 314.99 347.58"/>
    </g>
    <g>
      <rect class="cls-5" x="53.57" y="43.53" width="18.23" height="18.23"/>
      <rect class="cls-5" x="106.56" y="61.75" width="5.07" height="5.07"/>
      <rect class="cls-5" x="109.1" y="416.38" width="21.85" height="21.85"/>
      <rect class="cls-5" x="126.56" y="406.44" width="15.82" height="15.82"/>
      <rect class="cls-5" x="224.5" y="450.35" width="7.85" height="7.85"/>
      <rect class="cls-5" x="438.03" y="114.78" width="9.94" height="9.94"/>
      <rect class="cls-5" x="401.18" y="40.21" width="6.92" height="6.92"/>
      <rect class="cls-5" x="452.28" y="66.83" width="8.98" height="8.98"/>
      <rect class="cls-5" x="46.11" y="388.09" width="7.46" height="7.46"/>
      <rect class="cls-5" x="401.18" y="427.31" width="10.93" height="10.93"/>
      <rect class="cls-5" x="205.61" y="66.83" width="4.87" height="4.87"/>
    </g>
  </g>
</svg>