<svg width="214" height="141" viewBox="0 0 214 141" fill="none" xmlns="http://www.w3.org/2000/svg">
<path d="M12 182.838C13.103 171.726 23.6739 161.04 30.6 153.371C62.0126 118.593 100.26 86.7509 138.9 60.2868C163.553 43.4019 190.53 31.6161 219 22.9623C229.69 19.7129 243.615 12.8379 255 12.8379" stroke="white" stroke-opacity="0.2" stroke-width="24" stroke-linecap="round"/>
<path d="M69.9899 173.525C71.9199 162.527 83.2593 152.66 90.7389 145.53C124.661 113.195 165.181 84.2988 205.689 60.7947C231.535 45.7984 259.316 36.0605 288.353 29.5573C299.256 27.1154 313.656 21.2997 325.009 22.1501" stroke="white" stroke-opacity="0.2" stroke-width="24" stroke-linecap="round"/>
<path d="M109 200.363C110.93 189.364 122.269 179.497 129.749 172.368C163.671 140.033 204.19 111.137 244.699 87.6326C270.544 72.6363 298.326 62.8984 327.363 56.3952C338.266 53.9533 352.666 48.1376 364.018 48.988" stroke="white" stroke-opacity="0.2" stroke-width="24" stroke-linecap="round"/>
</svg>
