<svg width="16" height="17" viewBox="0 0 16 17" fill="none" xmlns="http://www.w3.org/2000/svg">
<path d="M2.11503 14.3856C2.89608 15.1667 4.15316 15.1667 6.66732 15.1667C9.18145 15.1667 10.4386 15.1667 11.2196 14.3856C12.0007 13.6046 12.0007 12.3475 12.0007 9.83333C12.0007 9.14973 11.727 8.4958 11.2436 8.0124L8.48825 5.25703C8.00485 4.77365 7.35092 4.5 6.66732 4.5C4.15316 4.5 2.89608 4.5 2.11503 5.28105C1.33398 6.0621 1.33398 7.3192 1.33398 9.83333C1.33398 12.3475 1.33398 13.6046 2.11503 14.3856Z" stroke="white"/>
<path d="M12.0007 12.432C12.8675 12.3467 13.4509 12.1541 13.8863 11.7186C14.6674 10.9376 14.6674 9.68047 14.6674 7.16634C14.6674 6.48274 14.3937 5.8288 13.9103 5.34542L11.1549 2.59004C10.6716 2.10666 10.0177 1.83301 9.33405 1.83301C6.81985 1.83301 5.5628 1.83301 4.78175 2.61405C4.34629 3.04951 4.15361 3.63293 4.06836 4.49967" stroke="white"/>
<path d="M6.66602 9.83301H5.99935C5.37081 9.83301 5.05654 9.83301 4.86128 10.0283C4.66602 10.2235 4.66602 10.5378 4.66602 11.1663V11.833C4.66602 12.4615 4.66602 12.7758 4.86128 12.9711C5.05654 13.1663 5.37081 13.1663 5.99935 13.1663H6.66602M6.66602 9.83301H7.33268C7.96122 9.83301 8.27548 9.83301 8.47075 10.0283C8.66602 10.2235 8.66602 10.5378 8.66602 11.1663V11.4997M6.66602 9.83301V11.4997M6.66602 13.1663H7.33268C7.96122 13.1663 8.27548 13.1663 8.47075 12.9711C8.66602 12.7758 8.66602 12.4615 8.66602 11.833V11.4997M6.66602 13.1663V11.4997M8.66602 11.4997H6.66602" stroke="white"/>
</svg>
