<svg width="25" height="24" viewBox="0 0 25 24" fill="none" xmlns="http://www.w3.org/2000/svg">
<path d="M19.5 7V4C19.5 3.73478 19.3946 3.48043 19.2071 3.29289C19.0196 3.10536 18.7652 3 18.5 3H5.5C4.96957 3 4.46086 3.21071 4.08579 3.58579C3.71071 3.96086 3.5 4.46957 3.5 5M3.5 5C3.5 5.53043 3.71071 6.03914 4.08579 6.41421C4.46086 6.78929 4.96957 7 5.5 7H20.5C20.7652 7 21.0196 7.10536 21.2071 7.29289C21.3946 7.48043 21.5 7.73478 21.5 8V12M3.5 5V19C3.5 19.5304 3.71071 20.0391 4.08579 20.4142C4.46086 20.7893 4.96957 21 5.5 21H20.5C20.7652 21 21.0196 20.8946 21.2071 20.7071C21.3946 20.5196 21.5 20.2652 21.5 20V16M21.5 12H18.5C17.9696 12 17.4609 12.2107 17.0858 12.5858C16.7107 12.9609 16.5 13.4696 16.5 14C16.5 14.5304 16.7107 15.0391 17.0858 15.4142C17.4609 15.7893 17.9696 16 18.5 16H21.5M21.5 12C21.7652 12 22.0196 12.1054 22.2071 12.2929C22.3946 12.4804 22.5 12.7348 22.5 13V15C22.5 15.2652 22.3946 15.5196 22.2071 15.7071C22.0196 15.8946 21.7652 16 21.5 16" stroke="#E6733C" stroke-width="1.5" stroke-linecap="round" stroke-linejoin="round"/>
</svg>
